<svg xmlns="http://www.w3.org/2000/svg" width="38" height="38" viewBox="0 0 38 38">
  <g id="transporte" transform="translate(-1155 -1397)">
    <circle id="Icon.BG" cx="19" cy="19" r="19" transform="translate(1155 1397)" fill="#f0f0f7"/>
    <path id="ic_local_shipping_24px" d="M20,8H17V4H3A2.006,2.006,0,0,0,1,6V17H3a3,3,0,0,0,6,0h6a3,3,0,0,0,6,0h2V12ZM6,18.5A1.5,1.5,0,1,1,7.5,17,1.5,1.5,0,0,1,6,18.5Zm13.5-9L21.46,12H17V9.5Zm-1.5,9A1.5,1.5,0,1,1,19.5,17,1.5,1.5,0,0,1,18,18.5Z" transform="translate(1163 1405)" fill="#767e83"/>
  </g>
</svg>
