<svg xmlns="http://www.w3.org/2000/svg" width="27" height="20" viewBox="0 0 27 20">
  <path id="ic_remove_red_eye_24px" d="M14.5,4.5C8.364,4.5,3.123,8.647,1,14.5c2.123,5.853,7.364,10,13.5,10s11.377-4.147,13.5-10C25.877,8.647,20.636,4.5,14.5,4.5Zm0,16.667A6.42,6.42,0,0,1,8.364,14.5,6.42,6.42,0,0,1,14.5,7.833,6.42,6.42,0,0,1,20.636,14.5,6.42,6.42,0,0,1,14.5,21.167Zm0-10.667a3.846,3.846,0,0,0-3.682,4,3.846,3.846,0,0,0,3.682,4,3.846,3.846,0,0,0,3.682-4A3.846,3.846,0,0,0,14.5,10.5Z" transform="translate(-1 -4.5)" fill="#95989a"/>
</svg>
