<svg xmlns="http://www.w3.org/2000/svg" xmlns:xlink="http://www.w3.org/1999/xlink" width="24" height="24" viewBox="0 0 24 24">
  <defs>
    <clipPath id="clip-path">
      <rect width="24" height="24" fill="none"/>
    </clipPath>
  </defs>
  <g id="icon_dashboard" clip-path="url(#clip-path)">
    <path id="Union_8" data-name="Union 8" d="M19.5,24A1.418,1.418,0,0,1,18,22.5V9a1.418,1.418,0,0,1,1.5-1.5h3A1.417,1.417,0,0,1,24,9V22.5A1.417,1.417,0,0,1,22.5,24Zm-9,0A1.416,1.416,0,0,1,9,22.5V1.5A1.417,1.417,0,0,1,10.5,0h3A1.417,1.417,0,0,1,15,1.5v21A1.416,1.416,0,0,1,13.5,24Zm-9,0A1.417,1.417,0,0,1,0,22.5v-6A1.418,1.418,0,0,1,1.5,15h3A1.419,1.419,0,0,1,6,16.5v6A1.418,1.418,0,0,1,4.5,24Z" transform="translate(0 0)" fill="#fff"/>
  </g>
</svg>
