<svg xmlns="http://www.w3.org/2000/svg" xmlns:xlink="http://www.w3.org/1999/xlink" width="22" height="24" viewBox="0 0 22 24">
  <defs>
    <clipPath id="clip-path">
      <rect width="22" height="24" fill="none"/>
    </clipPath>
  </defs>
  <g id="icon_customers" clip-path="url(#clip-path)">
    <path id="Union_10" data-name="Union 10" d="M0,24a9.249,9.249,0,0,1,9.428-9h3.143A9.249,9.249,0,0,1,22,24Zm4.085-3H18.071a6.4,6.4,0,0,0-5.5-3H9.585A6.4,6.4,0,0,0,4.085,21ZM4.714,7.5V6A6.166,6.166,0,0,1,11,0a6.166,6.166,0,0,1,6.287,6V7.5A6.166,6.166,0,0,1,11,13.5,6.166,6.166,0,0,1,4.714,7.5ZM7.857,6V7.5A3.083,3.083,0,0,0,11,10.5a3.083,3.083,0,0,0,3.144-3V6A3.083,3.083,0,0,0,11,3,3.083,3.083,0,0,0,7.857,6Z" transform="translate(0)" fill="#fff"/>
  </g>
</svg>
